<svg width="308" height="308" viewBox="0 0 308 308" fill="none" xmlns="http://www.w3.org/2000/svg">
<rect x="1" y="1" width="306" height="306" fill="#0C051E" stroke="url(#paint0_linear_74_82)" stroke-width="2"/>
<path d="M193.204 77.8969L192.997 77.4433L190.044 70.9731C184.53 58.8933 174.631 49.63 162.192 44.9676C149.788 40.3184 136.288 40.7703 124.243 46.2273C112.148 51.7068 102.934 61.5456 98.3207 73.9617L98.3202 73.9631C93.6715 86.3655 94.1971 99.815 99.7108 111.896L142.046 204.653C142.578 205.817 143.549 206.698 144.649 207.11C145.757 207.525 147.054 207.529 148.212 207.004L148.212 207.004L241.19 165.089L241.191 165.089M193.204 77.8969L267.617 137.542C262.921 150.071 253.611 160.01 241.396 165.544L241.191 165.089M193.204 77.8969L193.658 77.6912L200.038 74.8009C212.132 69.3214 225.632 68.8696 238.072 73.5322C250.512 78.195 260.366 87.3602 265.879 99.4389C271.392 111.517 271.834 124.975 267.149 137.365L267.148 137.367C262.499 149.77 253.285 159.609 241.191 165.089M193.204 77.8969L241.191 165.089" fill="url(#paint1_linear_74_82)" stroke="black"/>
<path d="M184.689 89.1221C172.528 83.4716 158.944 82.9078 146.337 87.4967C133.729 92.0856 123.663 101.298 117.978 113.444L115.01 119.787L108.559 116.79C96.3977 111.14 82.716 110.53 70.1081 115.119C57.5364 119.695 47.4704 128.907 41.809 141.004C36.1247 153.15 35.5124 166.754 40.1246 179.314C44.7007 191.887 53.9376 201.866 66.0993 207.516L158.568 250.478C159.848 251.073 161.296 251.117 162.524 250.67C163.753 250.223 164.847 249.295 165.445 248.016L208.848 155.723C214.533 143.577 215.145 129.973 210.569 117.4C206.029 104.814 196.851 94.7726 184.689 89.1221Z" fill="url(#paint2_linear_74_82)"/>
<path d="M115.251 120.451L114.799 120.241L108.349 117.244C96.3066 111.649 82.7621 111.046 70.2791 115.589C57.8317 120.12 47.8671 129.239 42.2619 141.216C36.6337 153.242 36.028 166.708 40.594 179.142L40.5945 179.143C45.1245 191.589 54.2671 201.467 66.31 207.063L158.779 250.025C159.939 250.564 161.25 250.602 162.353 250.2C163.466 249.795 164.454 248.955 164.992 247.804L164.992 247.803L208.396 155.511L208.396 155.51M115.251 120.451L210.569 117.4C215.145 129.973 214.533 143.577 208.848 155.723L208.396 155.51M115.251 120.451L115.462 119.999L118.431 113.656C124.059 101.63 134.024 92.5101 146.508 87.9665C158.992 83.4227 172.438 83.981 184.479 89.5755C196.52 95.1698 205.604 105.109 210.099 117.569L210.099 117.571C214.63 130.018 214.024 143.484 208.396 155.51M115.251 120.451L208.396 155.51" stroke="black" stroke-opacity="0.2"/>
<defs>
<linearGradient id="paint0_linear_74_82" x1="0" y1="154" x2="369.935" y2="154" gradientUnits="userSpaceOnUse">
<stop stop-color="#F48A6E"/>
<stop offset="0.5" stop-color="#EA5369"/>
<stop offset="1" stop-color="#F234F5"/>
</linearGradient>
<linearGradient id="paint1_linear_74_82" x1="87.5247" y1="101.34" x2="291.476" y2="177.785" gradientUnits="userSpaceOnUse">
<stop stop-color="#F48A6E"/>
<stop offset="0.5" stop-color="#EA5369"/>
<stop offset="1" stop-color="#F234F5"/>
</linearGradient>
<linearGradient id="paint2_linear_74_82" x1="50.1879" y1="206.963" x2="254.86" y2="132.469" gradientUnits="userSpaceOnUse">
<stop stop-color="#F48A6E"/>
<stop offset="0.5" stop-color="#EA5369"/>
<stop offset="1" stop-color="#F234F5"/>
</linearGradient>
</defs>
</svg>
