<svg width="59" height="67" viewBox="0 0 59 67" fill="none" xmlns="http://www.w3.org/2000/svg">
<path d="M56.9117 30.1848C59.4194 31.8671 59.721 35.4287 57.5317 37.5057L55.9283 39.0267C55.7008 39.2426 55.4523 39.4353 55.1864 39.6021L47.6031 44.3581L32.2282 53.4882L16.8533 62.3237L10.0579 65.7081C9.85763 65.8079 9.65057 65.8933 9.4382 65.9638L7.54052 66.5939C7.24496 66.692 6.94041 66.7608 6.63131 66.7993L5.31753 66.9629C2.49397 67.3145 0 65.1215 0 62.287V58.3313L48.9916 24.8717L56.9117 30.1848Z" fill="#F7306A"/>
<path d="M0 22.9307V55.1077L44.0836 21.7899L37.5437 17.8302L0 22.9307Z" fill="#F7306A"/>
<path d="M0 20.3061L32.7079 14.9023L32.2282 14.6118L17.4446 5.48178L10.6948 1.8399C10.4643 1.71554 10.2239 1.61049 9.97594 1.52582L6.26504 0.258481C3.19445 -0.790181 0 1.48268 0 4.71604V20.3061Z" fill="#F7306A"/>
</svg>
