<svg width="24" height="24" viewBox="0 0 24 24" fill="none" xmlns="http://www.w3.org/2000/svg">
<ellipse cx="8.65154" cy="6.40002" rx="6.92108" ry="6.40002" fill="white"/>
<path fill-rule="evenodd" clip-rule="evenodd" d="M17.9311 21.6005C18.0587 22.0609 18.4647 22.4001 18.9425 22.4001H23.08C23.6855 22.4001 24.1386 21.8691 23.9615 21.29C23.4012 19.4576 21.7543 16.0001 17.3032 16.0001C16.9049 16.0001 16.5291 16.0278 16.1745 16.0795C15.3985 16.1927 15.2822 17.1652 15.8193 17.7366C15.9169 17.8405 16.011 17.9461 16.1017 18.0532C17.0911 19.2223 17.633 20.5245 17.9311 21.6005ZM16.7587 21.2078C16.9734 21.8086 16.4958 22.4001 15.8578 22.4001H11.5264C10.9209 22.4001 10.4681 21.8679 10.6452 21.2888C10.9633 20.249 11.6312 18.6866 12.9623 17.5294C13.2555 17.2745 13.6832 17.2557 14.0015 17.4785C15.4923 18.5221 16.3101 19.9525 16.7587 21.2078Z" fill="white"/>
<path d="M8.65134 15.9999C15.3961 15.9999 16.8825 20.8624 17.2101 23.0056C17.2935 23.5515 16.855 23.9999 16.3027 23.9999H1C0.447716 23.9999 0.00915065 23.5515 0.0925942 23.0056C0.420162 20.8624 1.90656 15.9999 8.65134 15.9999Z" fill="white"/>
<path fill-rule="evenodd" clip-rule="evenodd" d="M14.0966 11.7748C15.6136 10.4374 16.5726 8.54023 16.5726 6.3999C16.5726 5.31749 16.3274 4.29727 15.8887 3.38019C16.3383 3.2627 16.8128 3.19983 17.3031 3.19983C20.1699 3.19983 22.4939 5.34887 22.4939 7.99985C22.4939 10.6508 20.1699 12.7999 17.3031 12.7999C16.0929 12.7999 14.9794 12.4169 14.0966 11.7748ZM13.344 11.1044C14.7144 9.935 15.5726 8.26013 15.5726 6.3999C15.5726 5.44482 15.3464 4.53861 14.9408 3.72458C13.2616 4.51956 12.1123 6.13559 12.1123 7.99985C12.1123 9.18368 12.5758 10.2674 13.344 11.1044Z" fill="white"/>
</svg>
