<svg width="17" height="19" viewBox="0 0 17 19" fill="none" xmlns="http://www.w3.org/2000/svg">
<ellipse cx="5.83366" cy="5.47543" rx="4.66667" ry="4.81967" fill="white"/>
<path fill-rule="evenodd" clip-rule="evenodd" d="M12.3644 16.7033C12.4913 17.1729 12.901 17.5246 13.3875 17.5246H15.2055C15.8054 17.5246 16.2582 16.9999 16.0802 16.427C15.6383 15.0047 14.4878 12.705 11.6671 12.705C11.5541 12.705 11.4437 12.7087 11.3359 12.7158C10.7407 12.7555 10.6124 13.4842 10.9906 13.9455C11.7268 14.8435 12.1355 15.8565 12.3644 16.7033ZM11.207 16.3558C11.4219 16.947 10.9443 17.5246 10.3152 17.5246H8.12879C7.52886 17.5246 7.07601 17.0002 7.25398 16.4272C7.47373 15.7198 7.8688 14.7953 8.55749 14.0446C8.84527 13.731 9.32547 13.7079 9.6458 13.9882C10.4329 14.6772 10.9136 15.5486 11.207 16.3558Z" fill="white"/>
<path d="M5.83333 12.7048C10.1647 12.7048 11.2799 16.0264 11.5671 17.7369C11.6585 18.2816 11.219 18.7294 10.6667 18.7294H1C0.447716 18.7294 0.00813597 18.2816 0.0995722 17.7369C0.386721 16.0264 1.50196 12.7048 5.83333 12.7048Z" fill="white"/>
<path fill-rule="evenodd" clip-rule="evenodd" d="M9.73599 9.69548C10.826 8.63024 11.5003 7.12636 11.5003 5.47528C11.5003 4.64272 11.3289 3.84758 11.0191 3.12724C11.2291 3.08665 11.4456 3.06543 11.667 3.06543C13.6 3.06543 15.167 4.68381 15.167 6.68018C15.167 8.67656 13.6 10.2949 11.667 10.2949C10.9533 10.2949 10.2895 10.0743 9.73599 9.69548ZM8.99756 9.01817C9.92159 8.13755 10.5003 6.87622 10.5003 5.47528C10.5003 4.75603 10.3478 4.07357 10.0743 3.46054C8.94199 4.05919 8.16699 5.27621 8.16699 6.68018C8.16699 7.57172 8.4795 8.38787 8.99756 9.01817Z" fill="white"/>
</svg>
