<svg width="24" height="24" viewBox="0 0 24 24" fill="none" xmlns="http://www.w3.org/2000/svg">
<path d="M18.4672 16.6787L19.391 17.0614V17.0614L18.4672 16.6787ZM14.6788 20.4671L15.0615 21.3909H15.0615L14.6788 20.4671ZM9.32122 20.4671L8.93853 21.3909L8.93853 21.3909L9.32122 20.4671ZM7.05025 18.9496L7.75736 18.2425H7.75736L7.05025 18.9496ZM5.53284 16.6787L4.60896 17.0614L5.53284 16.6787ZM15.4118 6.07108L14.7707 5.30364L15.4118 6.07108ZM15.588 6.07098L16.2292 5.30356L15.588 6.07098ZM13.1087 8.53777L12.1614 8.85803L13.1087 8.53777ZM13.3939 8.56415L14.2624 9.05993L13.3939 8.56415ZM9.80918 3.08663L9.14384 2.34009L9.80918 3.08663ZM10.0029 3.09794L9.27072 3.77905L10.0029 3.09794ZM9.14384 2.34009C8.38115 3.01983 4 7.20605 4 13.9999H6C6 8.07856 9.84251 4.39644 10.4745 3.83317L9.14384 2.34009ZM14.0561 8.21751C12.9477 4.93895 11.2024 2.91916 10.7351 2.41682L9.27072 3.77905C9.62017 4.1547 11.1734 5.93557 12.1614 8.85803L14.0561 8.21751ZM14.2624 9.05993C14.9998 7.76809 15.8298 7.02489 16.0529 6.83852L14.7707 5.30364C14.4255 5.59202 13.4146 6.51087 12.5255 8.06838L14.2624 9.05993ZM14.9469 6.83839C15.3898 7.20844 18 9.57804 18 13.9411H20C20 8.71845 16.8719 5.84056 16.2292 5.30356L14.9469 6.83839ZM18 13.9411V13.9999H20V13.9411H18ZM18 13.9999C18 14.7878 17.8448 15.568 17.5433 16.296L19.391 17.0614C19.7931 16.0908 20 15.0505 20 13.9999H18ZM17.5433 16.296C17.2417 17.024 16.7998 17.6854 16.2426 18.2425L17.6569 19.6568C18.3997 18.9139 18.989 18.032 19.391 17.0614L17.5433 16.296ZM16.2426 18.2425C15.6855 18.7997 15.0241 19.2416 14.2961 19.5432L15.0615 21.3909C16.0321 20.9889 16.914 20.3996 17.6569 19.6568L16.2426 18.2425ZM14.2961 19.5432C13.5681 19.8447 12.7879 19.9999 12 19.9999V21.9999C13.0506 21.9999 14.0909 21.793 15.0615 21.3909L14.2961 19.5432ZM12 19.9999C11.2121 19.9999 10.4319 19.8447 9.7039 19.5432L8.93853 21.3909C9.90914 21.793 10.9494 21.9999 12 21.9999V19.9999ZM9.7039 19.5432C8.97595 19.2416 8.31451 18.7997 7.75736 18.2425L6.34314 19.6568C7.08601 20.3996 7.96793 20.9889 8.93853 21.3909L9.7039 19.5432ZM7.75736 18.2425C7.20021 17.6854 6.75825 17.024 6.45672 16.296L4.60896 17.0614C5.011 18.032 5.60028 18.9139 6.34315 19.6568L7.75736 18.2425ZM6.45672 16.296C6.15519 15.568 6 14.7878 6 13.9999H4C4 15.0505 4.20693 16.0908 4.60896 17.0614L6.45672 16.296ZM16.0529 6.83852C15.7344 7.10461 15.2677 7.10643 14.9469 6.83839L16.2292 5.30356C15.8053 4.94946 15.1922 4.95149 14.7707 5.30364L16.0529 6.83852ZM12.1614 8.85803C12.4857 9.81721 13.7768 9.91048 14.2624 9.05993L12.5255 8.06838C12.8788 7.44952 13.8172 7.51106 14.0561 8.21751L12.1614 8.85803ZM10.4745 3.83317C10.1037 4.16364 9.56813 4.09875 9.27072 3.77905L10.7351 2.41682C10.3327 1.98428 9.62969 1.90708 9.14384 2.34009L10.4745 3.83317Z" fill="white"/>
<path d="M11.4581 11.4102L10.8311 10.6311V10.6311L11.4581 11.4102ZM8.04628 16.3844L7.05717 16.2372H7.05717L8.04628 16.3844ZM12.5421 11.4102L13.169 10.6311L12.5421 11.4102ZM15.9537 16.3844L14.9646 16.5316L14.9646 16.5316L15.9537 16.3844ZM15.958 16.4184L14.9634 16.5223C14.9648 16.5358 14.9665 16.5492 14.9685 16.5626L15.958 16.4184ZM8.04197 16.4184L9.03153 16.5625C9.03347 16.5492 9.03515 16.5358 9.03655 16.5223L8.04197 16.4184ZM10.8311 10.6311C10.2968 11.0611 9.46733 11.793 8.71968 12.7317C7.97947 13.6612 7.26126 14.8658 7.05717 16.2372L9.03538 16.5316C9.16671 15.6492 9.65301 14.7702 10.2842 13.9777C10.9078 13.1946 11.6165 12.5663 12.085 12.1893L10.8311 10.6311ZM13.169 10.6311C12.4825 10.0787 11.5176 10.0787 10.8311 10.6311L12.085 12.1893C12.067 12.2038 12.0365 12.2168 12.0001 12.2168C11.9636 12.2168 11.9331 12.2038 11.9151 12.1893L13.169 10.6311ZM16.9428 16.2372C16.7387 14.8658 16.0206 13.6612 15.2804 12.7318C14.5328 11.793 13.7033 11.0611 13.169 10.6311L11.9151 12.1893C12.3836 12.5663 13.0922 13.1946 13.7159 13.9777C14.347 14.7702 14.8333 15.6492 14.9646 16.5316L16.9428 16.2372ZM16.9526 16.3146C16.9499 16.2888 16.9467 16.263 16.9428 16.2372L14.9646 16.5316C14.9642 16.5286 14.9638 16.5255 14.9634 16.5223L16.9526 16.3146ZM14.9685 16.5626C14.9892 16.7048 15 16.8508 15 17H17C17 16.7541 16.9822 16.5117 16.9476 16.2743L14.9685 16.5626ZM15 17C15 18.6568 13.6569 20 12 20V22C14.7614 22 17 19.7614 17 17H15ZM12 20C10.3431 20 9 18.6568 9 17H7C7 19.7614 9.23858 22 12 22V20ZM9 17C9 16.8508 9.01081 16.7048 9.03153 16.5625L7.05241 16.2743C7.01783 16.5117 7 16.7541 7 17H9ZM7.05717 16.2372C7.05334 16.2629 7.05008 16.2887 7.04738 16.3145L9.03655 16.5223C9.03623 16.5255 9.03583 16.5286 9.03538 16.5316L7.05717 16.2372Z" fill="white"/>
</svg>
