<svg width="35" height="35" viewBox="0 0 35 35" fill="none" xmlns="http://www.w3.org/2000/svg">
<rect width="35" height="35" rx="17.5" fill="white"/>
<path d="M22.9579 19.9437C23.4171 19.4846 23.4827 18.8287 23.0891 18.1728C22.7612 17.648 22.1709 17.3857 21.5149 17.5169C21.2526 17.5825 20.9902 17.7136 20.7278 17.9104C18.6945 19.2878 15.9397 19.2222 13.9064 17.8448C13.7752 17.7792 13.644 17.7136 13.5128 17.648C12.7913 17.3201 12.0699 17.4513 11.6763 18.1072C11.2172 18.7631 11.2828 19.4846 11.8731 20.0749C12.0043 20.2061 12.1354 20.2717 12.201 20.4029L12.2666 20.4685C13.1849 21.19 14.2999 21.6491 15.7429 21.8459L14.8903 22.6986C14.1688 23.42 13.3817 24.2071 12.6602 24.9286C12.4634 25.1254 12.201 25.4534 12.201 25.9125C12.201 26.5028 12.529 27.0931 13.1193 27.3555C13.3161 27.4867 13.5129 27.4867 13.7096 27.4867C14.0376 27.4867 14.4311 27.3555 14.6935 27.0275C15.6773 26.0437 16.4644 25.2566 17.2515 24.4695C17.3171 24.4039 17.3171 24.4039 17.3171 24.4039C17.3171 24.4039 17.3827 24.4039 17.3827 24.4695C17.9074 25.0598 18.4978 25.5845 19.0225 26.1749C19.2849 26.4372 19.5472 26.6996 19.8096 26.962C20.1375 27.2899 20.3999 27.4211 20.7934 27.4211C21.3838 27.4867 22.0397 27.0931 22.302 26.5028C22.5644 25.9781 22.4332 25.3222 21.9741 24.9286C21.3182 24.2727 20.6623 23.5512 19.9408 22.8953L18.8257 21.7803C19.416 21.7147 20.0719 21.5835 20.6623 21.3211C21.6461 20.9932 22.3676 20.534 22.9579 19.9437Z" fill="#06020F"/>
<path d="M17.3171 18.1072C20.1375 18.1072 22.4332 15.8771 22.4332 13.0567C22.4332 11.6793 21.9085 10.3675 20.9246 9.38359C19.9408 8.39973 18.6945 7.875 17.3827 7.875C14.5623 7.875 12.3322 10.1707 12.2666 12.9255C12.2666 14.3029 12.7914 15.5491 13.7752 16.533C14.6935 17.5824 15.9397 18.1072 17.3171 18.1072ZM15.8741 11.5481C16.2677 11.1545 16.7924 10.9578 17.3171 10.9578C18.4978 10.9578 19.3504 11.876 19.3504 12.9911C19.3504 14.1717 18.4322 15.0244 17.3171 15.0244C16.1365 15.0244 15.2838 14.1061 15.2838 12.9911C15.2838 12.4664 15.4806 11.9416 15.8741 11.5481Z" fill="#06020F"/>
<path d="M22.9579 19.9437C23.4171 19.4846 23.4827 18.8287 23.0891 18.1728C22.7612 17.648 22.1709 17.3857 21.5149 17.5169C21.2526 17.5825 20.9902 17.7136 20.7278 17.9104C18.6945 19.2878 15.9397 19.2222 13.9064 17.8448C13.7752 17.7792 13.644 17.7136 13.5128 17.648C12.7913 17.3201 12.0699 17.4513 11.6763 18.1072C11.2172 18.7631 11.2828 19.4846 11.8731 20.0749C12.0043 20.2061 12.1354 20.2717 12.201 20.4029L12.2666 20.4685C13.1849 21.19 14.2999 21.6491 15.7429 21.8459L14.8903 22.6986C14.1688 23.42 13.3817 24.2071 12.6602 24.9286C12.4634 25.1254 12.201 25.4534 12.201 25.9125C12.201 26.5028 12.529 27.0931 13.1193 27.3555C13.3161 27.4867 13.5129 27.4867 13.7096 27.4867C14.0376 27.4867 14.4311 27.3555 14.6935 27.0275C15.6773 26.0437 16.4644 25.2566 17.2515 24.4695C17.3171 24.4039 17.3171 24.4039 17.3171 24.4039C17.3171 24.4039 17.3827 24.4039 17.3827 24.4695C17.9074 25.0598 18.4978 25.5845 19.0225 26.1749C19.2849 26.4372 19.5472 26.6996 19.8096 26.962C20.1375 27.2899 20.3999 27.4211 20.7934 27.4211C21.3838 27.4867 22.0397 27.0931 22.302 26.5028C22.5644 25.9781 22.4332 25.3222 21.9741 24.9286C21.3182 24.2727 20.6623 23.5512 19.9408 22.8953L18.8257 21.7803C19.416 21.7147 20.0719 21.5835 20.6623 21.3211C21.6461 20.9932 22.3676 20.534 22.9579 19.9437Z" fill="#06020F"/>
</svg>
