<svg width="17" height="18" viewBox="0 0 17 18" fill="none" xmlns="http://www.w3.org/2000/svg">
<circle cx="5.83366" cy="4.66667" r="4.66667" fill="white"/>
<path fill-rule="evenodd" clip-rule="evenodd" d="M12.3601 15.5167C12.4907 15.9836 12.8993 16.3333 13.3842 16.3333H15.2003C15.8018 16.3333 16.2544 15.8057 16.0677 15.2339C15.6173 13.8543 14.4622 11.6666 11.6665 11.6666C11.5311 11.6666 11.3996 11.6718 11.2719 11.6817C10.725 11.7241 10.6044 12.3965 10.9609 12.8134C11.7116 13.6913 12.1276 14.6859 12.3601 15.5167ZM11.1909 15.1609C11.4167 15.7508 10.9385 16.3333 10.3069 16.3333H8.13257C7.53107 16.3333 7.07854 15.8058 7.26522 15.234C7.48813 14.5512 7.88361 13.6705 8.56515 12.955C8.85113 12.6548 9.31699 12.6327 9.63412 12.8999C10.4141 13.5569 10.8948 14.3871 11.1909 15.1609Z" fill="white"/>
<path d="M5.83333 11.6666C10.1383 11.6666 11.2662 14.8437 11.5618 16.5085C11.6583 17.0523 11.219 17.5 10.6667 17.5H1C0.447716 17.5 0.00838581 17.0523 0.104911 16.5085C0.400425 14.8437 1.52834 11.6666 5.83333 11.6666Z" fill="white"/>
<path fill-rule="evenodd" clip-rule="evenodd" d="M9.75004 8.76209C10.8286 7.73042 11.5003 6.27695 11.5003 4.66659C11.5003 3.85758 11.3308 3.08817 11.0253 2.39194C11.2333 2.3534 11.4478 2.33325 11.667 2.33325C13.6 2.33325 15.167 3.90026 15.167 5.83325C15.167 7.76625 13.6 9.33325 11.667 9.33325C10.9593 9.33325 10.3007 9.12322 9.75004 8.76209ZM8.99755 8.09701C9.92158 7.24434 10.5003 6.02305 10.5003 4.66659C10.5003 3.97017 10.3478 3.30938 10.0743 2.71581C8.942 3.29546 8.16699 4.47385 8.16699 5.83325C8.16699 6.69648 8.4795 7.48672 8.99755 8.09701Z" fill="white"/>
</svg>
