<svg width="26" height="26" viewBox="0 0 26 26" fill="none" xmlns="http://www.w3.org/2000/svg">
<path fill-rule="evenodd" clip-rule="evenodd" d="M8.79604 2.93518L13.6522 2.17206C16.8728 1.66597 18.4831 1.41292 19.5334 2.31104C20.5837 3.20916 20.5837 4.83922 20.5837 8.09932V11.9995H13.9976L17.0312 8.20753L15.4695 6.95814L11.1361 12.3748L10.6364 12.9995L11.1361 13.6242L15.4695 19.0409L17.0312 17.7915L13.9976 13.9995H20.5837V17.8997C20.5837 21.1598 20.5837 22.7898 19.5334 23.688C18.4831 24.5861 16.8728 24.333 13.6522 23.8269L8.79604 23.0638C7.18331 22.8104 6.37694 22.6837 5.89697 22.1224C5.41699 21.5611 5.41699 20.7448 5.41699 19.1123V6.88669C5.41699 5.25416 5.41699 4.4379 5.89697 3.87661C6.37694 3.31532 7.18331 3.18861 8.79604 2.93518Z" fill="white"/>
</svg>
