<svg width="35" height="35" viewBox="0 0 35 35" fill="none" xmlns="http://www.w3.org/2000/svg">
<path d="M23.2227 25.5273L26.0938 11.9922C26.2109 11.4193 26.1426 11.0091 25.8887 10.7617C25.6348 10.5143 25.2995 10.4688 24.8828 10.625L8.00781 17.1289C7.63021 17.2721 7.37305 17.4349 7.23633 17.6172C7.09961 17.7995 7.08333 17.972 7.1875 18.1348C7.29167 18.2975 7.5 18.4245 7.8125 18.5156L12.1289 19.8633L22.1484 13.5547C22.4219 13.3724 22.6302 13.3333 22.7734 13.4375C22.8646 13.5026 22.8385 13.6003 22.6953 13.7305L14.5898 21.0547L14.2773 25.5078C14.5768 25.5078 14.8698 25.3646 15.1562 25.0781L17.2656 23.0469L21.6406 26.2695C22.474 26.7383 23.0013 26.4909 23.2227 25.5273ZM35 17.5C35 19.8698 34.5378 22.1354 33.6133 24.2969C32.6888 26.4583 31.4453 28.3203 29.8828 29.8828C28.3203 31.4453 26.4583 32.6888 24.2969 33.6133C22.1354 34.5378 19.8698 35 17.5 35C15.1302 35 12.8646 34.5378 10.7031 33.6133C8.54167 32.6888 6.67969 31.4453 5.11719 29.8828C3.55469 28.3203 2.3112 26.4583 1.38672 24.2969C0.46224 22.1354 0 19.8698 0 17.5C0 15.1302 0.46224 12.8646 1.38672 10.7031C2.3112 8.54167 3.55469 6.67969 5.11719 5.11719C6.67969 3.55469 8.54167 2.3112 10.7031 1.38672C12.8646 0.46224 15.1302 0 17.5 0C19.8698 0 22.1354 0.46224 24.2969 1.38672C26.4583 2.3112 28.3203 3.55469 29.8828 5.11719C31.4453 6.67969 32.6888 8.54167 33.6133 10.7031C34.5378 12.8646 35 15.1302 35 17.5Z" fill="white"/>
</svg>
