<svg width="35" height="35" viewBox="0 0 35 35" fill="none" xmlns="http://www.w3.org/2000/svg">
<g clip-path="url(#clip0_79_40)">
<path d="M17.5 0.699951C8.22151 0.699951 0.700012 8.22145 0.700012 17.5C0.700012 26.7785 8.22151 34.3 17.5 34.3C26.7785 34.3 34.3 26.7785 34.3 17.5C34.3 8.22145 26.7785 0.699951 17.5 0.699951ZM23.961 19.6542C23.961 19.6542 25.4468 21.1207 25.8125 21.8015C25.823 21.8155 25.8283 21.8295 25.8318 21.8365C25.9805 22.0867 26.0155 22.281 25.942 22.4262C25.8195 22.6677 25.3995 22.7867 25.256 22.7972H22.631C22.449 22.7972 22.0675 22.75 21.6055 22.4315C21.2503 22.183 20.9003 21.7752 20.559 21.378C20.0498 20.7865 19.6088 20.2755 19.1643 20.2755C19.1078 20.2754 19.0517 20.2842 18.998 20.3017C18.662 20.4102 18.2315 20.8897 18.2315 22.1672C18.2315 22.5662 17.9165 22.7955 17.6943 22.7955H16.492C16.0825 22.7955 13.9493 22.652 12.0593 20.6587C9.74576 18.2175 7.66326 13.321 7.64576 13.2755C7.51451 12.9587 7.78576 12.789 8.08151 12.789H10.7328C11.0863 12.789 11.2018 13.0042 11.2823 13.195C11.3768 13.4172 11.7233 14.301 12.292 15.295C13.2143 16.9155 13.7795 17.5735 14.2328 17.5735C14.3177 17.5725 14.4012 17.5508 14.476 17.5105C15.0675 17.1815 14.9573 15.0727 14.931 14.6352C14.931 14.553 14.9293 13.692 14.6265 13.279C14.4095 12.9797 14.0403 12.866 13.8163 12.824C13.9069 12.6988 14.0264 12.5974 14.1645 12.5282C14.5705 12.3252 15.302 12.2955 16.0283 12.2955H16.4325C17.22 12.306 17.423 12.3567 17.7083 12.4285C18.2858 12.5667 18.298 12.9395 18.2473 14.2152C18.2315 14.5775 18.2158 14.987 18.2158 15.47C18.2158 15.575 18.2105 15.687 18.2105 15.806C18.193 16.4552 18.172 17.192 18.6305 17.4947C18.6903 17.5322 18.7594 17.5522 18.83 17.5525C18.9893 17.5525 19.4688 17.5525 20.7673 15.3247C21.1677 14.6077 21.5157 13.8625 21.8085 13.0952C21.8348 13.0497 21.9118 12.9097 22.0028 12.8555C22.0699 12.8212 22.1444 12.8038 22.2198 12.8047H25.3365C25.676 12.8047 25.9088 12.8555 25.9525 12.9867C26.0295 13.195 25.9385 13.8302 24.5158 15.757L23.8805 16.5952C22.5908 18.2857 22.5908 18.3715 23.961 19.6542Z" fill="white"/>
</g>
<defs>
<clipPath id="clip0_79_40">
<rect width="35" height="35" fill="white"/>
</clipPath>
</defs>
</svg>
